<?xml version="1.0" encoding="UTF-8"?>
<svg width="59px" height="59px" viewBox="0 0 59 59" version="1.1" xmlns="http://www.w3.org/2000/svg" xmlns:xlink="http://www.w3.org/1999/xlink">
    <!-- Generator: sketchtool 52.6 (67491) - http://www.bohemiancoding.com/sketch -->
    <title>1CDA7F83-B1DF-4AC2-96A3-FC7957A4E2B2</title>
    <desc>Created with sketchtool.</desc>
    <g id="Page-1" stroke="none" stroke-width="1" fill="none" fill-rule="evenodd">
        <g id="1" transform="translate(-230.000000, -1512.000000)" fill="#FFFFFF" fill-rule="nonzero">
            <g id="Group" transform="translate(160.000000, 1442.000000)">
                <path d="M99.494098,70 C83.2282761,70 70,83.2350607 70,99.5039349 C70,115.770842 83.2302434,129 99.494098,129 C115.757953,129 129,115.768874 129,99.5039349 C129,83.2350607 115.75992,70 99.494098,70 Z M99.494098,126.88302 C84.3968656,126.88302 72.1168389,114.606109 72.1168389,99.5039349 C72.1168389,84.4017607 84.3968656,72.1169801 99.494098,72.1169801 C114.595265,72.1169801 126.883161,84.4017607 126.883161,99.5039349 C126.883161,114.606109 114.595265,126.88302 99.494098,126.88302 Z M112.793198,96.7101507 L94.325942,86.4577498 C91.8097366,85.0588902 89.3997666,86.5423503 89.3997666,89.3597439 L89.3997666,109.642224 C89.3997666,111.713952 90.5899967,113.108877 92.3586195,113.108877 C92.996032,113.108877 93.660987,112.920001 94.3298766,112.548153 L112.793198,102.291817 C114.014905,101.615013 114.719206,100.597839 114.719206,99.5059024 C114.719206,98.4139656 114.014905,97.3948246 112.793198,96.7101507 Z" id="Play-round-2-Copy"></path>
            </g>
        </g>
    </g>
</svg>